<mxfile host="app.diagrams.net" modified="2020-10-01T20:50:14.511Z" agent="5.0 (X11)" etag="ujua9YFDFC4C5enmGGmt" version="13.7.7" type="github">
  <diagram id="Bchb_zZJ0BFu2-Gx5Zc2" name="1st Qtr">
    <mxGraphModel dx="1037" dy="466" grid="1" gridSize="2" guides="1" tooltips="1" connect="1" arrows="1" fold="1" page="1" pageScale="1" pageWidth="827" pageHeight="1169" background="none" math="0" shadow="0">
      <root>
        <mxCell id="0" />
        <mxCell id="1" parent="0" />
        <mxCell id="p8fQn8S3qPSi5neX4E7F-25" value="" style="group" parent="1" vertex="1" connectable="0">
          <mxGeometry x="80" y="50" width="630" height="910" as="geometry" />
        </mxCell>
        <mxCell id="p8fQn8S3qPSi5neX4E7F-24" value="" style="rounded=0;whiteSpace=wrap;html=1;dashed=1;" parent="p8fQn8S3qPSi5neX4E7F-25" vertex="1">
          <mxGeometry width="630" height="910" as="geometry" />
        </mxCell>
        <mxCell id="p8fQn8S3qPSi5neX4E7F-7" value="" style="rounded=0;whiteSpace=wrap;html=1;" parent="p8fQn8S3qPSi5neX4E7F-25" vertex="1">
          <mxGeometry x="80" y="30" width="520" height="440" as="geometry" />
        </mxCell>
        <mxCell id="p8fQn8S3qPSi5neX4E7F-8" value="" style="rounded=0;whiteSpace=wrap;html=1;" parent="p8fQn8S3qPSi5neX4E7F-25" vertex="1">
          <mxGeometry x="80" y="470" width="520" height="400" as="geometry" />
        </mxCell>
        <mxCell id="p8fQn8S3qPSi5neX4E7F-9" value="" style="group" parent="p8fQn8S3qPSi5neX4E7F-25" vertex="1" connectable="0">
          <mxGeometry x="199" y="30" width="280" height="151" as="geometry" />
        </mxCell>
        <mxCell id="p8fQn8S3qPSi5neX4E7F-4" value="" style="rounded=0;whiteSpace=wrap;html=1;" parent="p8fQn8S3qPSi5neX4E7F-9" vertex="1">
          <mxGeometry width="280" height="120" as="geometry" />
        </mxCell>
        <mxCell id="p8fQn8S3qPSi5neX4E7F-3" value="" style="rounded=0;whiteSpace=wrap;html=1;" parent="p8fQn8S3qPSi5neX4E7F-9" vertex="1">
          <mxGeometry x="80" width="120" height="60" as="geometry" />
        </mxCell>
        <mxCell id="p8fQn8S3qPSi5neX4E7F-6" value="" style="shape=or;whiteSpace=wrap;html=1;rotation=90;" parent="p8fQn8S3qPSi5neX4E7F-9" vertex="1">
          <mxGeometry x="125" y="96" width="30" height="80" as="geometry" />
        </mxCell>
        <mxCell id="p8fQn8S3qPSi5neX4E7F-10" value="" style="group;rotation=-180;" parent="p8fQn8S3qPSi5neX4E7F-25" vertex="1" connectable="0">
          <mxGeometry x="199" y="720" width="280" height="151" as="geometry" />
        </mxCell>
        <mxCell id="p8fQn8S3qPSi5neX4E7F-11" value="" style="rounded=0;whiteSpace=wrap;html=1;rotation=-180;" parent="p8fQn8S3qPSi5neX4E7F-10" vertex="1">
          <mxGeometry y="31" width="280" height="120" as="geometry" />
        </mxCell>
        <mxCell id="p8fQn8S3qPSi5neX4E7F-12" value="" style="rounded=0;whiteSpace=wrap;html=1;rotation=-180;" parent="p8fQn8S3qPSi5neX4E7F-10" vertex="1">
          <mxGeometry x="80" y="91" width="120" height="60" as="geometry" />
        </mxCell>
        <mxCell id="p8fQn8S3qPSi5neX4E7F-13" value="" style="shape=or;whiteSpace=wrap;html=1;rotation=-90;" parent="p8fQn8S3qPSi5neX4E7F-10" vertex="1">
          <mxGeometry x="125" y="-25" width="30" height="80" as="geometry" />
        </mxCell>
        <mxCell id="p8fQn8S3qPSi5neX4E7F-5" value="LI" style="ellipse;whiteSpace=wrap;html=1;aspect=fixed;" parent="p8fQn8S3qPSi5neX4E7F-10" vertex="1">
          <mxGeometry x="117.5" y="98.5" width="45" height="45" as="geometry" />
        </mxCell>
        <mxCell id="p8fQn8S3qPSi5neX4E7F-15" value="DP" style="ellipse;whiteSpace=wrap;html=1;aspect=fixed;" parent="p8fQn8S3qPSi5neX4E7F-25" vertex="1">
          <mxGeometry x="180" y="670" width="45" height="45" as="geometry" />
        </mxCell>
        <mxCell id="p8fQn8S3qPSi5neX4E7F-16" value="RT" style="ellipse;whiteSpace=wrap;html=1;aspect=fixed;" parent="p8fQn8S3qPSi5neX4E7F-25" vertex="1">
          <mxGeometry x="460" y="670" width="45" height="45" as="geometry" />
        </mxCell>
        <mxCell id="p8fQn8S3qPSi5neX4E7F-17" value="BP" style="ellipse;whiteSpace=wrap;html=1;aspect=fixed;" parent="p8fQn8S3qPSi5neX4E7F-25" vertex="1">
          <mxGeometry x="317.5" y="670" width="45" height="45" as="geometry" />
        </mxCell>
        <mxCell id="p8fQn8S3qPSi5neX4E7F-18" value="AR" style="ellipse;whiteSpace=wrap;html=1;aspect=fixed;" parent="p8fQn8S3qPSi5neX4E7F-25" vertex="1">
          <mxGeometry x="120" y="560" width="45" height="45" as="geometry" />
        </mxCell>
        <mxCell id="p8fQn8S3qPSi5neX4E7F-19" value="AW" style="ellipse;whiteSpace=wrap;html=1;aspect=fixed;" parent="p8fQn8S3qPSi5neX4E7F-25" vertex="1">
          <mxGeometry x="240" y="560" width="45" height="45" as="geometry" />
        </mxCell>
        <mxCell id="p8fQn8S3qPSi5neX4E7F-20" value="LJ" style="ellipse;whiteSpace=wrap;html=1;aspect=fixed;" parent="p8fQn8S3qPSi5neX4E7F-25" vertex="1">
          <mxGeometry x="390" y="560" width="45" height="45" as="geometry" />
        </mxCell>
        <mxCell id="p8fQn8S3qPSi5neX4E7F-21" value="IC" style="ellipse;whiteSpace=wrap;html=1;aspect=fixed;" parent="p8fQn8S3qPSi5neX4E7F-25" vertex="1">
          <mxGeometry x="520" y="560" width="45" height="45" as="geometry" />
        </mxCell>
        <mxCell id="p8fQn8S3qPSi5neX4E7F-22" value="IR" style="ellipse;whiteSpace=wrap;html=1;aspect=fixed;" parent="p8fQn8S3qPSi5neX4E7F-25" vertex="1">
          <mxGeometry x="317.5" y="480" width="45" height="45" as="geometry" />
        </mxCell>
        <mxCell id="p8fQn8S3qPSi5neX4E7F-23" value="ED" style="ellipse;whiteSpace=wrap;html=1;aspect=fixed;" parent="p8fQn8S3qPSi5neX4E7F-25" vertex="1">
          <mxGeometry x="20" y="470" width="45" height="45" as="geometry" />
        </mxCell>
        <mxCell id="p8fQn8S3qPSi5neX4E7F-96" value="&lt;b&gt;&lt;font style=&quot;font-size: 22px&quot;&gt;Q1&lt;/font&gt;&lt;/b&gt;" style="text;html=1;align=center;verticalAlign=middle;resizable=0;points=[];autosize=1;" parent="p8fQn8S3qPSi5neX4E7F-25" vertex="1">
          <mxGeometry x="20" y="20" width="40" height="20" as="geometry" />
        </mxCell>
        <mxCell id="p8fQn8S3qPSi5neX4E7F-26" value="" style="group" parent="1" vertex="1" connectable="0">
          <mxGeometry x="710" y="50" width="630" height="910" as="geometry" />
        </mxCell>
        <mxCell id="p8fQn8S3qPSi5neX4E7F-27" value="" style="rounded=0;whiteSpace=wrap;html=1;dashed=1;" parent="p8fQn8S3qPSi5neX4E7F-26" vertex="1">
          <mxGeometry width="630" height="910" as="geometry" />
        </mxCell>
        <mxCell id="p8fQn8S3qPSi5neX4E7F-28" value="" style="rounded=0;whiteSpace=wrap;html=1;" parent="p8fQn8S3qPSi5neX4E7F-26" vertex="1">
          <mxGeometry x="80" y="30" width="520" height="440" as="geometry" />
        </mxCell>
        <mxCell id="p8fQn8S3qPSi5neX4E7F-29" value="" style="rounded=0;whiteSpace=wrap;html=1;" parent="p8fQn8S3qPSi5neX4E7F-26" vertex="1">
          <mxGeometry x="80" y="470" width="520" height="400" as="geometry" />
        </mxCell>
        <mxCell id="p8fQn8S3qPSi5neX4E7F-30" value="" style="group" parent="p8fQn8S3qPSi5neX4E7F-26" vertex="1" connectable="0">
          <mxGeometry x="199" y="30" width="280" height="151" as="geometry" />
        </mxCell>
        <mxCell id="p8fQn8S3qPSi5neX4E7F-31" value="" style="rounded=0;whiteSpace=wrap;html=1;" parent="p8fQn8S3qPSi5neX4E7F-30" vertex="1">
          <mxGeometry width="280" height="120" as="geometry" />
        </mxCell>
        <mxCell id="p8fQn8S3qPSi5neX4E7F-32" value="" style="rounded=0;whiteSpace=wrap;html=1;" parent="p8fQn8S3qPSi5neX4E7F-30" vertex="1">
          <mxGeometry x="80" width="120" height="60" as="geometry" />
        </mxCell>
        <mxCell id="p8fQn8S3qPSi5neX4E7F-33" value="" style="shape=or;whiteSpace=wrap;html=1;rotation=90;" parent="p8fQn8S3qPSi5neX4E7F-30" vertex="1">
          <mxGeometry x="125" y="96" width="30" height="80" as="geometry" />
        </mxCell>
        <mxCell id="p8fQn8S3qPSi5neX4E7F-34" value="" style="group;rotation=-180;" parent="p8fQn8S3qPSi5neX4E7F-26" vertex="1" connectable="0">
          <mxGeometry x="199" y="720" width="280" height="151" as="geometry" />
        </mxCell>
        <mxCell id="p8fQn8S3qPSi5neX4E7F-35" value="" style="rounded=0;whiteSpace=wrap;html=1;rotation=-180;" parent="p8fQn8S3qPSi5neX4E7F-34" vertex="1">
          <mxGeometry y="31" width="280" height="120" as="geometry" />
        </mxCell>
        <mxCell id="p8fQn8S3qPSi5neX4E7F-36" value="" style="rounded=0;whiteSpace=wrap;html=1;rotation=-180;" parent="p8fQn8S3qPSi5neX4E7F-34" vertex="1">
          <mxGeometry x="80" y="91" width="120" height="60" as="geometry" />
        </mxCell>
        <mxCell id="p8fQn8S3qPSi5neX4E7F-37" value="" style="shape=or;whiteSpace=wrap;html=1;rotation=-90;" parent="p8fQn8S3qPSi5neX4E7F-34" vertex="1">
          <mxGeometry x="125" y="-25" width="30" height="80" as="geometry" />
        </mxCell>
        <mxCell id="p8fQn8S3qPSi5neX4E7F-38" value="LI" style="ellipse;whiteSpace=wrap;html=1;aspect=fixed;" parent="p8fQn8S3qPSi5neX4E7F-34" vertex="1">
          <mxGeometry x="117.5" y="98.5" width="45" height="45" as="geometry" />
        </mxCell>
        <mxCell id="p8fQn8S3qPSi5neX4E7F-39" value="DP" style="ellipse;whiteSpace=wrap;html=1;aspect=fixed;" parent="p8fQn8S3qPSi5neX4E7F-26" vertex="1">
          <mxGeometry x="180" y="670" width="45" height="45" as="geometry" />
        </mxCell>
        <mxCell id="p8fQn8S3qPSi5neX4E7F-40" value="RT" style="ellipse;whiteSpace=wrap;html=1;aspect=fixed;" parent="p8fQn8S3qPSi5neX4E7F-26" vertex="1">
          <mxGeometry x="460" y="670" width="45" height="45" as="geometry" />
        </mxCell>
        <mxCell id="p8fQn8S3qPSi5neX4E7F-41" value="BP" style="ellipse;whiteSpace=wrap;html=1;aspect=fixed;" parent="p8fQn8S3qPSi5neX4E7F-26" vertex="1">
          <mxGeometry x="317.5" y="670" width="45" height="45" as="geometry" />
        </mxCell>
        <mxCell id="p8fQn8S3qPSi5neX4E7F-42" value="AR" style="ellipse;whiteSpace=wrap;html=1;aspect=fixed;" parent="p8fQn8S3qPSi5neX4E7F-26" vertex="1">
          <mxGeometry x="120" y="560" width="45" height="45" as="geometry" />
        </mxCell>
        <mxCell id="p8fQn8S3qPSi5neX4E7F-43" value="AW" style="ellipse;whiteSpace=wrap;html=1;aspect=fixed;" parent="p8fQn8S3qPSi5neX4E7F-26" vertex="1">
          <mxGeometry x="20" y="480" width="45" height="45" as="geometry" />
        </mxCell>
        <mxCell id="p8fQn8S3qPSi5neX4E7F-44" value="LJ" style="ellipse;whiteSpace=wrap;html=1;aspect=fixed;" parent="p8fQn8S3qPSi5neX4E7F-26" vertex="1">
          <mxGeometry x="390" y="560" width="45" height="45" as="geometry" />
        </mxCell>
        <mxCell id="p8fQn8S3qPSi5neX4E7F-45" value="IC" style="ellipse;whiteSpace=wrap;html=1;aspect=fixed;" parent="p8fQn8S3qPSi5neX4E7F-26" vertex="1">
          <mxGeometry x="520" y="560" width="45" height="45" as="geometry" />
        </mxCell>
        <mxCell id="p8fQn8S3qPSi5neX4E7F-46" value="IR" style="ellipse;whiteSpace=wrap;html=1;aspect=fixed;" parent="p8fQn8S3qPSi5neX4E7F-26" vertex="1">
          <mxGeometry x="317.5" y="480" width="45" height="45" as="geometry" />
        </mxCell>
        <mxCell id="p8fQn8S3qPSi5neX4E7F-47" value="ED" style="ellipse;whiteSpace=wrap;html=1;aspect=fixed;" parent="p8fQn8S3qPSi5neX4E7F-26" vertex="1">
          <mxGeometry x="260" y="560" width="45" height="45" as="geometry" />
        </mxCell>
        <mxCell id="p8fQn8S3qPSi5neX4E7F-97" value="&lt;font size=&quot;1&quot;&gt;&lt;b&gt;&lt;font style=&quot;font-size: 22px&quot;&gt;Q2&lt;/font&gt;&lt;/b&gt;&lt;/font&gt;" style="text;html=1;align=center;verticalAlign=middle;resizable=0;points=[];autosize=1;" parent="p8fQn8S3qPSi5neX4E7F-26" vertex="1">
          <mxGeometry x="10" y="20" width="40" height="20" as="geometry" />
        </mxCell>
        <mxCell id="p8fQn8S3qPSi5neX4E7F-48" value="" style="group" parent="1" vertex="1" connectable="0">
          <mxGeometry x="80" y="960" width="630" height="910" as="geometry" />
        </mxCell>
        <mxCell id="p8fQn8S3qPSi5neX4E7F-49" value="" style="rounded=0;whiteSpace=wrap;html=1;dashed=1;" parent="p8fQn8S3qPSi5neX4E7F-48" vertex="1">
          <mxGeometry width="630" height="910" as="geometry" />
        </mxCell>
        <mxCell id="p8fQn8S3qPSi5neX4E7F-50" value="" style="rounded=0;whiteSpace=wrap;html=1;" parent="p8fQn8S3qPSi5neX4E7F-48" vertex="1">
          <mxGeometry x="80" y="30" width="520" height="440" as="geometry" />
        </mxCell>
        <mxCell id="p8fQn8S3qPSi5neX4E7F-51" value="" style="rounded=0;whiteSpace=wrap;html=1;" parent="p8fQn8S3qPSi5neX4E7F-48" vertex="1">
          <mxGeometry x="80" y="470" width="520" height="400" as="geometry" />
        </mxCell>
        <mxCell id="p8fQn8S3qPSi5neX4E7F-52" value="" style="group" parent="p8fQn8S3qPSi5neX4E7F-48" vertex="1" connectable="0">
          <mxGeometry x="199" y="30" width="280" height="151" as="geometry" />
        </mxCell>
        <mxCell id="p8fQn8S3qPSi5neX4E7F-53" value="" style="rounded=0;whiteSpace=wrap;html=1;" parent="p8fQn8S3qPSi5neX4E7F-52" vertex="1">
          <mxGeometry width="280" height="120" as="geometry" />
        </mxCell>
        <mxCell id="p8fQn8S3qPSi5neX4E7F-54" value="" style="rounded=0;whiteSpace=wrap;html=1;" parent="p8fQn8S3qPSi5neX4E7F-52" vertex="1">
          <mxGeometry x="80" width="120" height="60" as="geometry" />
        </mxCell>
        <mxCell id="p8fQn8S3qPSi5neX4E7F-55" value="" style="shape=or;whiteSpace=wrap;html=1;rotation=90;" parent="p8fQn8S3qPSi5neX4E7F-52" vertex="1">
          <mxGeometry x="125" y="96" width="30" height="80" as="geometry" />
        </mxCell>
        <mxCell id="p8fQn8S3qPSi5neX4E7F-56" value="" style="group;rotation=-180;" parent="p8fQn8S3qPSi5neX4E7F-48" vertex="1" connectable="0">
          <mxGeometry x="199" y="720" width="280" height="151" as="geometry" />
        </mxCell>
        <mxCell id="p8fQn8S3qPSi5neX4E7F-57" value="" style="rounded=0;whiteSpace=wrap;html=1;rotation=-180;" parent="p8fQn8S3qPSi5neX4E7F-56" vertex="1">
          <mxGeometry y="31" width="280" height="120" as="geometry" />
        </mxCell>
        <mxCell id="p8fQn8S3qPSi5neX4E7F-58" value="" style="rounded=0;whiteSpace=wrap;html=1;rotation=-180;" parent="p8fQn8S3qPSi5neX4E7F-56" vertex="1">
          <mxGeometry x="80" y="91" width="120" height="60" as="geometry" />
        </mxCell>
        <mxCell id="p8fQn8S3qPSi5neX4E7F-59" value="" style="shape=or;whiteSpace=wrap;html=1;rotation=-90;" parent="p8fQn8S3qPSi5neX4E7F-56" vertex="1">
          <mxGeometry x="125" y="-25" width="30" height="80" as="geometry" />
        </mxCell>
        <mxCell id="p8fQn8S3qPSi5neX4E7F-62" value="RT" style="ellipse;whiteSpace=wrap;html=1;aspect=fixed;" parent="p8fQn8S3qPSi5neX4E7F-56" vertex="1">
          <mxGeometry x="117.5" y="98.5" width="45" height="45" as="geometry" />
        </mxCell>
        <mxCell id="p8fQn8S3qPSi5neX4E7F-61" value="DP" style="ellipse;whiteSpace=wrap;html=1;aspect=fixed;" parent="p8fQn8S3qPSi5neX4E7F-48" vertex="1">
          <mxGeometry x="180" y="670" width="45" height="45" as="geometry" />
        </mxCell>
        <mxCell id="p8fQn8S3qPSi5neX4E7F-63" value="BP" style="ellipse;whiteSpace=wrap;html=1;aspect=fixed;" parent="p8fQn8S3qPSi5neX4E7F-48" vertex="1">
          <mxGeometry x="317.5" y="670" width="45" height="45" as="geometry" />
        </mxCell>
        <mxCell id="p8fQn8S3qPSi5neX4E7F-64" value="AR" style="ellipse;whiteSpace=wrap;html=1;aspect=fixed;" parent="p8fQn8S3qPSi5neX4E7F-48" vertex="1">
          <mxGeometry x="120" y="560" width="45" height="45" as="geometry" />
        </mxCell>
        <mxCell id="p8fQn8S3qPSi5neX4E7F-65" value="AW" style="ellipse;whiteSpace=wrap;html=1;aspect=fixed;" parent="p8fQn8S3qPSi5neX4E7F-48" vertex="1">
          <mxGeometry x="390" y="560" width="45" height="45" as="geometry" />
        </mxCell>
        <mxCell id="p8fQn8S3qPSi5neX4E7F-66" value="LJ" style="ellipse;whiteSpace=wrap;html=1;aspect=fixed;" parent="p8fQn8S3qPSi5neX4E7F-48" vertex="1">
          <mxGeometry x="515" y="560" width="50" height="50" as="geometry" />
        </mxCell>
        <mxCell id="p8fQn8S3qPSi5neX4E7F-67" value="IC" style="ellipse;whiteSpace=wrap;html=1;aspect=fixed;" parent="p8fQn8S3qPSi5neX4E7F-48" vertex="1">
          <mxGeometry x="470" y="670" width="45" height="45" as="geometry" />
        </mxCell>
        <mxCell id="p8fQn8S3qPSi5neX4E7F-68" value="IR" style="ellipse;whiteSpace=wrap;html=1;aspect=fixed;" parent="p8fQn8S3qPSi5neX4E7F-48" vertex="1">
          <mxGeometry x="10" y="490" width="45" height="45" as="geometry" />
        </mxCell>
        <mxCell id="p8fQn8S3qPSi5neX4E7F-69" value="ED" style="ellipse;whiteSpace=wrap;html=1;aspect=fixed;" parent="p8fQn8S3qPSi5neX4E7F-48" vertex="1">
          <mxGeometry x="240" y="560" width="45" height="45" as="geometry" />
        </mxCell>
        <mxCell id="p8fQn8S3qPSi5neX4E7F-60" value="LI" style="ellipse;whiteSpace=wrap;html=1;aspect=fixed;" parent="p8fQn8S3qPSi5neX4E7F-48" vertex="1">
          <mxGeometry x="317.5" y="480" width="45" height="45" as="geometry" />
        </mxCell>
        <mxCell id="p8fQn8S3qPSi5neX4E7F-98" value="&lt;b&gt;&lt;font style=&quot;font-size: 22px&quot;&gt;Q3&lt;/font&gt;&lt;/b&gt;" style="text;html=1;align=center;verticalAlign=middle;resizable=0;points=[];autosize=1;" parent="p8fQn8S3qPSi5neX4E7F-48" vertex="1">
          <mxGeometry x="15" y="20" width="40" height="20" as="geometry" />
        </mxCell>
        <mxCell id="p8fQn8S3qPSi5neX4E7F-70" value="" style="group" parent="1" vertex="1" connectable="0">
          <mxGeometry x="710" y="960" width="630" height="910" as="geometry" />
        </mxCell>
        <mxCell id="p8fQn8S3qPSi5neX4E7F-71" value="" style="rounded=0;whiteSpace=wrap;html=1;dashed=1;" parent="p8fQn8S3qPSi5neX4E7F-70" vertex="1">
          <mxGeometry width="630" height="910" as="geometry" />
        </mxCell>
        <mxCell id="p8fQn8S3qPSi5neX4E7F-72" value="" style="rounded=0;whiteSpace=wrap;html=1;" parent="p8fQn8S3qPSi5neX4E7F-70" vertex="1">
          <mxGeometry x="80" y="30" width="520" height="440" as="geometry" />
        </mxCell>
        <mxCell id="p8fQn8S3qPSi5neX4E7F-73" value="" style="rounded=0;whiteSpace=wrap;html=1;" parent="p8fQn8S3qPSi5neX4E7F-70" vertex="1">
          <mxGeometry x="80" y="470" width="520" height="400" as="geometry" />
        </mxCell>
        <mxCell id="p8fQn8S3qPSi5neX4E7F-74" value="" style="group" parent="p8fQn8S3qPSi5neX4E7F-70" vertex="1" connectable="0">
          <mxGeometry x="199" y="30" width="280" height="151" as="geometry" />
        </mxCell>
        <mxCell id="p8fQn8S3qPSi5neX4E7F-75" value="" style="rounded=0;whiteSpace=wrap;html=1;" parent="p8fQn8S3qPSi5neX4E7F-74" vertex="1">
          <mxGeometry width="280" height="120" as="geometry" />
        </mxCell>
        <mxCell id="p8fQn8S3qPSi5neX4E7F-76" value="" style="rounded=0;whiteSpace=wrap;html=1;" parent="p8fQn8S3qPSi5neX4E7F-74" vertex="1">
          <mxGeometry x="80" width="120" height="60" as="geometry" />
        </mxCell>
        <mxCell id="p8fQn8S3qPSi5neX4E7F-77" value="" style="shape=or;whiteSpace=wrap;html=1;rotation=90;" parent="p8fQn8S3qPSi5neX4E7F-74" vertex="1">
          <mxGeometry x="125" y="96" width="30" height="80" as="geometry" />
        </mxCell>
        <mxCell id="p8fQn8S3qPSi5neX4E7F-78" value="" style="group;rotation=-180;" parent="p8fQn8S3qPSi5neX4E7F-70" vertex="1" connectable="0">
          <mxGeometry x="199" y="720" width="280" height="151" as="geometry" />
        </mxCell>
        <mxCell id="p8fQn8S3qPSi5neX4E7F-79" value="" style="rounded=0;whiteSpace=wrap;html=1;rotation=-180;" parent="p8fQn8S3qPSi5neX4E7F-78" vertex="1">
          <mxGeometry y="31" width="280" height="120" as="geometry" />
        </mxCell>
        <mxCell id="p8fQn8S3qPSi5neX4E7F-80" value="" style="rounded=0;whiteSpace=wrap;html=1;rotation=-180;" parent="p8fQn8S3qPSi5neX4E7F-78" vertex="1">
          <mxGeometry x="80" y="91" width="120" height="60" as="geometry" />
        </mxCell>
        <mxCell id="p8fQn8S3qPSi5neX4E7F-81" value="" style="shape=or;whiteSpace=wrap;html=1;rotation=-90;" parent="p8fQn8S3qPSi5neX4E7F-78" vertex="1">
          <mxGeometry x="125" y="-25" width="30" height="80" as="geometry" />
        </mxCell>
        <mxCell id="p8fQn8S3qPSi5neX4E7F-84" value="RT" style="ellipse;whiteSpace=wrap;html=1;aspect=fixed;" parent="p8fQn8S3qPSi5neX4E7F-78" vertex="1">
          <mxGeometry x="117.5" y="98.5" width="45" height="45" as="geometry" />
        </mxCell>
        <mxCell id="p8fQn8S3qPSi5neX4E7F-83" value="DP" style="ellipse;whiteSpace=wrap;html=1;aspect=fixed;" parent="p8fQn8S3qPSi5neX4E7F-70" vertex="1">
          <mxGeometry x="180" y="670" width="45" height="45" as="geometry" />
        </mxCell>
        <mxCell id="p8fQn8S3qPSi5neX4E7F-85" value="BP" style="ellipse;whiteSpace=wrap;html=1;aspect=fixed;" parent="p8fQn8S3qPSi5neX4E7F-70" vertex="1">
          <mxGeometry x="317.5" y="670" width="45" height="45" as="geometry" />
        </mxCell>
        <mxCell id="p8fQn8S3qPSi5neX4E7F-86" value="AR" style="ellipse;whiteSpace=wrap;html=1;aspect=fixed;" parent="p8fQn8S3qPSi5neX4E7F-70" vertex="1">
          <mxGeometry x="20" y="480" width="45" height="45" as="geometry" />
        </mxCell>
        <mxCell id="p8fQn8S3qPSi5neX4E7F-87" value="AW" style="ellipse;whiteSpace=wrap;html=1;aspect=fixed;" parent="p8fQn8S3qPSi5neX4E7F-70" vertex="1">
          <mxGeometry x="390" y="560" width="45" height="45" as="geometry" />
        </mxCell>
        <mxCell id="p8fQn8S3qPSi5neX4E7F-88" value="LJ" style="ellipse;whiteSpace=wrap;html=1;aspect=fixed;" parent="p8fQn8S3qPSi5neX4E7F-70" vertex="1">
          <mxGeometry x="505" y="560" width="45" height="45" as="geometry" />
        </mxCell>
        <mxCell id="p8fQn8S3qPSi5neX4E7F-89" value="IC" style="ellipse;whiteSpace=wrap;html=1;aspect=fixed;" parent="p8fQn8S3qPSi5neX4E7F-70" vertex="1">
          <mxGeometry x="460" y="670" width="45" height="45" as="geometry" />
        </mxCell>
        <mxCell id="p8fQn8S3qPSi5neX4E7F-91" value="ED" style="ellipse;whiteSpace=wrap;html=1;aspect=fixed;" parent="p8fQn8S3qPSi5neX4E7F-70" vertex="1">
          <mxGeometry x="240" y="560" width="45" height="45" as="geometry" />
        </mxCell>
        <mxCell id="p8fQn8S3qPSi5neX4E7F-82" value="LI" style="ellipse;whiteSpace=wrap;html=1;aspect=fixed;" parent="p8fQn8S3qPSi5neX4E7F-70" vertex="1">
          <mxGeometry x="316.5" y="480" width="45" height="45" as="geometry" />
        </mxCell>
        <mxCell id="p8fQn8S3qPSi5neX4E7F-95" value="IR" style="ellipse;whiteSpace=wrap;html=1;aspect=fixed;" parent="p8fQn8S3qPSi5neX4E7F-70" vertex="1">
          <mxGeometry x="117" y="560" width="45" height="45" as="geometry" />
        </mxCell>
        <mxCell id="p8fQn8S3qPSi5neX4E7F-99" value="&lt;b&gt;&lt;font style=&quot;font-size: 22px&quot;&gt;Q4&lt;/font&gt;&lt;/b&gt;" style="text;html=1;align=center;verticalAlign=middle;resizable=0;points=[];autosize=1;" parent="p8fQn8S3qPSi5neX4E7F-70" vertex="1">
          <mxGeometry x="20" y="20" width="40" height="20" as="geometry" />
        </mxCell>
        <mxCell id="p8fQn8S3qPSi5neX4E7F-101" value="&lt;font style=&quot;font-size: 30px&quot;&gt;Who&#39;s in front of me?&lt;br&gt;&lt;/font&gt;" style="text;html=1;align=center;verticalAlign=middle;resizable=0;points=[];autosize=1;" parent="1" vertex="1">
          <mxGeometry x="340" y="1888" width="294" height="26" as="geometry" />
        </mxCell>
        <mxCell id="p8fQn8S3qPSi5neX4E7F-102" value="&lt;font style=&quot;font-size: 30px&quot;&gt;Who&#39;s to the side of me?&lt;br&gt;&lt;/font&gt;" style="text;html=1;align=center;verticalAlign=middle;resizable=0;points=[];autosize=1;" parent="1" vertex="1">
          <mxGeometry x="412" y="1936" width="340" height="26" as="geometry" />
        </mxCell>
        <mxCell id="p8fQn8S3qPSi5neX4E7F-103" value="&lt;font style=&quot;font-size: 30px&quot;&gt;Who&#39;s behind me?&lt;br&gt;&lt;/font&gt;" style="text;html=1;align=center;verticalAlign=middle;resizable=0;points=[];autosize=1;" parent="1" vertex="1">
          <mxGeometry x="530" y="1984" width="260" height="26" as="geometry" />
        </mxCell>
        <mxCell id="p8fQn8S3qPSi5neX4E7F-104" value="&lt;font style=&quot;font-size: 46px&quot;&gt;Do you know?!&lt;/font&gt;" style="text;html=1;align=center;verticalAlign=middle;resizable=0;points=[];autosize=1;" parent="1" vertex="1">
          <mxGeometry x="7" y="1936" width="316" height="30" as="geometry" />
        </mxCell>
      </root>
    </mxGraphModel>
  </diagram>
</mxfile>
